<mxfile host="65bd71144e">
    <diagram name="ユースケース図" id="sBMSRXaKZgMtcKzqUlqi">
        <mxGraphModel dx="1024" dy="626" grid="1" gridSize="10" guides="1" tooltips="1" connect="1" arrows="1" fold="1" page="1" pageScale="1" pageWidth="827" pageHeight="1169" math="0" shadow="0">
            <root>
                <mxCell id="0"/>
                <mxCell id="1" parent="0"/>
                <mxCell id="2" value="匿名ユーザー" style="shape=umlActor;verticalLabelPosition=bottom;verticalAlign=top;html=1;outlineConnect=0;" vertex="1" parent="1">
                    <mxGeometry x="60" y="160" width="30" height="60" as="geometry"/>
                </mxCell>
                <mxCell id="3" value="購入者" style="shape=umlActor;verticalLabelPosition=bottom;verticalAlign=top;html=1;outlineConnect=0;" vertex="1" parent="1">
                    <mxGeometry x="60" y="370" width="30" height="60" as="geometry"/>
                </mxCell>
                <mxCell id="4" value="出品者" style="shape=umlActor;verticalLabelPosition=bottom;verticalAlign=top;html=1;outlineConnect=0;" vertex="1" parent="1">
                    <mxGeometry x="740" y="160" width="30" height="60" as="geometry"/>
                </mxCell>
                <mxCell id="5" value="商品を検索" style="ellipse;whiteSpace=wrap;html=1;" vertex="1" parent="1">
                    <mxGeometry x="354" y="50" width="120" height="80" as="geometry"/>
                </mxCell>
                <mxCell id="6" value="商品を購入" style="ellipse;whiteSpace=wrap;html=1;" vertex="1" parent="1">
                    <mxGeometry x="354" y="160" width="120" height="80" as="geometry"/>
                </mxCell>
                <mxCell id="7" value="出品者の&lt;br&gt;プロフィールを表示" style="ellipse;whiteSpace=wrap;html=1;" vertex="1" parent="1">
                    <mxGeometry x="354" y="270" width="120" height="80" as="geometry"/>
                </mxCell>
                <mxCell id="8" value="商品を出品" style="ellipse;whiteSpace=wrap;html=1;" vertex="1" parent="1">
                    <mxGeometry x="354" y="380" width="120" height="80" as="geometry"/>
                </mxCell>
                <mxCell id="9" value="サインイン" style="ellipse;whiteSpace=wrap;html=1;" vertex="1" parent="1">
                    <mxGeometry x="354" y="490" width="120" height="80" as="geometry"/>
                </mxCell>
                <mxCell id="10" value="" style="endArrow=none;html=1;entryX=0;entryY=0.5;entryDx=0;entryDy=0;exitX=1;exitY=0.3333333333333333;exitDx=0;exitDy=0;exitPerimeter=0;" edge="1" parent="1" source="2" target="5">
                    <mxGeometry width="50" height="50" relative="1" as="geometry">
                        <mxPoint x="390" y="350" as="sourcePoint"/>
                        <mxPoint x="440" y="300" as="targetPoint"/>
                    </mxGeometry>
                </mxCell>
                <mxCell id="11" value="" style="endArrow=none;html=1;entryX=0;entryY=0.5;entryDx=0;entryDy=0;" edge="1" parent="1" target="7">
                    <mxGeometry width="50" height="50" relative="1" as="geometry">
                        <mxPoint x="90" y="180" as="sourcePoint"/>
                        <mxPoint x="364" y="100" as="targetPoint"/>
                    </mxGeometry>
                </mxCell>
                <mxCell id="12" value="" style="endArrow=none;html=1;entryX=0;entryY=0.5;entryDx=0;entryDy=0;" edge="1" parent="1" target="7">
                    <mxGeometry width="50" height="50" relative="1" as="geometry">
                        <mxPoint x="90" y="390" as="sourcePoint"/>
                        <mxPoint x="354" y="520" as="targetPoint"/>
                    </mxGeometry>
                </mxCell>
                <mxCell id="13" value="" style="endArrow=none;html=1;entryX=0;entryY=0.5;entryDx=0;entryDy=0;" edge="1" parent="1" target="5">
                    <mxGeometry width="50" height="50" relative="1" as="geometry">
                        <mxPoint x="90" y="390" as="sourcePoint"/>
                        <mxPoint x="364" y="320" as="targetPoint"/>
                    </mxGeometry>
                </mxCell>
                <mxCell id="14" value="" style="endArrow=none;html=1;entryX=0;entryY=0.5;entryDx=0;entryDy=0;" edge="1" parent="1" target="6">
                    <mxGeometry width="50" height="50" relative="1" as="geometry">
                        <mxPoint x="90" y="390" as="sourcePoint"/>
                        <mxPoint x="364" y="100" as="targetPoint"/>
                    </mxGeometry>
                </mxCell>
                <mxCell id="15" value="" style="endArrow=none;html=1;entryX=0;entryY=0.5;entryDx=0;entryDy=0;" edge="1" parent="1" target="9">
                    <mxGeometry width="50" height="50" relative="1" as="geometry">
                        <mxPoint x="90" y="390" as="sourcePoint"/>
                        <mxPoint x="364" y="210" as="targetPoint"/>
                    </mxGeometry>
                </mxCell>
                <mxCell id="16" value="" style="endArrow=none;html=1;entryX=0;entryY=0.3333333333333333;entryDx=0;entryDy=0;entryPerimeter=0;exitX=1;exitY=0.5;exitDx=0;exitDy=0;" edge="1" parent="1" source="5" target="4">
                    <mxGeometry width="50" height="50" relative="1" as="geometry">
                        <mxPoint x="100" y="400" as="sourcePoint"/>
                        <mxPoint x="364" y="540" as="targetPoint"/>
                    </mxGeometry>
                </mxCell>
                <mxCell id="17" value="" style="endArrow=none;html=1;exitX=1;exitY=0.5;exitDx=0;exitDy=0;" edge="1" parent="1" source="6">
                    <mxGeometry width="50" height="50" relative="1" as="geometry">
                        <mxPoint x="484" y="100" as="sourcePoint"/>
                        <mxPoint x="740" y="180" as="targetPoint"/>
                    </mxGeometry>
                </mxCell>
                <mxCell id="18" value="" style="endArrow=none;html=1;exitX=1;exitY=0.5;exitDx=0;exitDy=0;entryX=0;entryY=0.3333333333333333;entryDx=0;entryDy=0;entryPerimeter=0;" edge="1" parent="1" source="7" target="4">
                    <mxGeometry width="50" height="50" relative="1" as="geometry">
                        <mxPoint x="484" y="210" as="sourcePoint"/>
                        <mxPoint x="750" y="190" as="targetPoint"/>
                    </mxGeometry>
                </mxCell>
                <mxCell id="19" value="" style="endArrow=none;html=1;exitX=1;exitY=0.5;exitDx=0;exitDy=0;entryX=0;entryY=0.3333333333333333;entryDx=0;entryDy=0;entryPerimeter=0;" edge="1" parent="1" source="8" target="4">
                    <mxGeometry width="50" height="50" relative="1" as="geometry">
                        <mxPoint x="484" y="320" as="sourcePoint"/>
                        <mxPoint x="750" y="190" as="targetPoint"/>
                    </mxGeometry>
                </mxCell>
                <mxCell id="20" value="" style="endArrow=none;html=1;exitX=1;exitY=0.5;exitDx=0;exitDy=0;entryX=0;entryY=0.3333333333333333;entryDx=0;entryDy=0;entryPerimeter=0;" edge="1" parent="1" source="9" target="4">
                    <mxGeometry width="50" height="50" relative="1" as="geometry">
                        <mxPoint x="484" y="430" as="sourcePoint"/>
                        <mxPoint x="750" y="190" as="targetPoint"/>
                    </mxGeometry>
                </mxCell>
            </root>
        </mxGraphModel>
    </diagram>
    <diagram id="3f8jK5lR7EUx5ehscB4C" name="アーキテクチャー図">
        <mxGraphModel dx="922" dy="736" grid="1" gridSize="10" guides="1" tooltips="1" connect="1" arrows="1" fold="1" page="1" pageScale="1" pageWidth="827" pageHeight="1169" math="0" shadow="0">
            <root>
                <mxCell id="0"/>
                <mxCell id="1" parent="0"/>
                <mxCell id="K0mcrc98uCM77xat3W6a-1" value="API" style="rounded=0;whiteSpace=wrap;html=1;" vertex="1" parent="1">
                    <mxGeometry x="630" y="170" width="120" height="60" as="geometry"/>
                </mxCell>
                <mxCell id="K0mcrc98uCM77xat3W6a-2" value="" style="rounded=1;whiteSpace=wrap;html=1;dashed=1;" vertex="1" parent="1">
                    <mxGeometry x="290" y="40" width="220" height="290" as="geometry"/>
                </mxCell>
                <mxCell id="K0mcrc98uCM77xat3W6a-3" value="&lt;font style=&quot;font-size: 24px;&quot;&gt;NEXT.js&lt;/font&gt;" style="text;html=1;align=center;verticalAlign=middle;resizable=0;points=[];autosize=1;strokeColor=none;fillColor=none;" vertex="1" parent="1">
                    <mxGeometry x="345" y="65" width="110" height="40" as="geometry"/>
                </mxCell>
                <mxCell id="K0mcrc98uCM77xat3W6a-4" value="SSG/ISR" style="text;html=1;align=center;verticalAlign=middle;resizable=0;points=[];autosize=1;strokeColor=none;fillColor=none;" vertex="1" parent="1">
                    <mxGeometry x="365" y="130" width="70" height="30" as="geometry"/>
                </mxCell>
                <mxCell id="K0mcrc98uCM77xat3W6a-6" value="" style="endArrow=classic;html=1;fontSize=24;exitX=0.489;exitY=1.031;exitDx=0;exitDy=0;exitPerimeter=0;" edge="1" parent="1" source="K0mcrc98uCM77xat3W6a-3">
                    <mxGeometry width="50" height="50" relative="1" as="geometry">
                        <mxPoint x="390" y="330" as="sourcePoint"/>
                        <mxPoint x="399" y="130" as="targetPoint"/>
                    </mxGeometry>
                </mxCell>
                <mxCell id="K0mcrc98uCM77xat3W6a-8" value="" style="endArrow=classic;html=1;fontSize=24;exitX=0.489;exitY=1.031;exitDx=0;exitDy=0;exitPerimeter=0;" edge="1" parent="1">
                    <mxGeometry width="50" height="50" relative="1" as="geometry">
                        <mxPoint x="399.7600000000001" y="160" as="sourcePoint"/>
                        <mxPoint x="399.97" y="183.76" as="targetPoint"/>
                    </mxGeometry>
                </mxCell>
                <mxCell id="K0mcrc98uCM77xat3W6a-10" value="&lt;font style=&quot;font-size: 12px;&quot;&gt;page&lt;br&gt;(HTML/JS/CSS)&lt;br&gt;&lt;/font&gt;" style="sketch=0;pointerEvents=1;shadow=0;dashed=0;html=1;strokeColor=none;fillColor=#505050;labelPosition=center;verticalLabelPosition=bottom;verticalAlign=top;outlineConnect=0;align=center;shape=mxgraph.office.concepts.web_page;fontSize=24;" vertex="1" parent="1">
                    <mxGeometry x="375" y="190" width="50" height="54" as="geometry"/>
                </mxCell>
                <mxCell id="K0mcrc98uCM77xat3W6a-11" value="Client" style="outlineConnect=0;dashed=0;verticalLabelPosition=bottom;verticalAlign=top;align=center;html=1;shape=mxgraph.aws3.management_console;fillColor=#D2D3D3;gradientColor=none;fontSize=12;" vertex="1" parent="1">
                    <mxGeometry x="70" y="153.5" width="63" height="63" as="geometry"/>
                </mxCell>
                <mxCell id="K0mcrc98uCM77xat3W6a-12" value="" style="endArrow=classic;html=1;fontSize=12;exitX=1;exitY=0.5;exitDx=0;exitDy=0;exitPerimeter=0;entryX=0;entryY=0.5;entryDx=0;entryDy=0;" edge="1" parent="1" source="K0mcrc98uCM77xat3W6a-11" target="K0mcrc98uCM77xat3W6a-2">
                    <mxGeometry width="50" height="50" relative="1" as="geometry">
                        <mxPoint x="480" y="350" as="sourcePoint"/>
                        <mxPoint x="530" y="300" as="targetPoint"/>
                    </mxGeometry>
                </mxCell>
                <mxCell id="K0mcrc98uCM77xat3W6a-13" value="ページを取得" style="edgeLabel;html=1;align=center;verticalAlign=middle;resizable=0;points=[];fontSize=12;" vertex="1" connectable="0" parent="K0mcrc98uCM77xat3W6a-12">
                    <mxGeometry x="-0.1115" y="1" relative="1" as="geometry">
                        <mxPoint as="offset"/>
                    </mxGeometry>
                </mxCell>
                <mxCell id="K0mcrc98uCM77xat3W6a-14" value="" style="endArrow=classic;html=1;fontSize=12;entryX=0;entryY=0.5;entryDx=0;entryDy=0;" edge="1" parent="1" target="K0mcrc98uCM77xat3W6a-1">
                    <mxGeometry width="50" height="50" relative="1" as="geometry">
                        <mxPoint x="100" y="240" as="sourcePoint"/>
                        <mxPoint x="100" y="400" as="targetPoint"/>
                        <Array as="points">
                            <mxPoint x="100" y="440"/>
                            <mxPoint x="560" y="440"/>
                            <mxPoint x="560" y="200"/>
                            <mxPoint x="600" y="200"/>
                        </Array>
                    </mxGeometry>
                </mxCell>
                <mxCell id="K0mcrc98uCM77xat3W6a-15" value="動的コンテンツを取得し、CSRを行う" style="edgeLabel;html=1;align=center;verticalAlign=middle;resizable=0;points=[];fontSize=12;" vertex="1" connectable="0" parent="K0mcrc98uCM77xat3W6a-14">
                    <mxGeometry x="-0.1115" y="1" relative="1" as="geometry">
                        <mxPoint as="offset"/>
                    </mxGeometry>
                </mxCell>
                <mxCell id="K0mcrc98uCM77xat3W6a-17" value="&lt;font style=&quot;font-size: 10px;&quot;&gt;バックエンド&lt;/font&gt;" style="text;html=1;align=center;verticalAlign=middle;resizable=0;points=[];autosize=1;strokeColor=none;fillColor=none;fontSize=12;" vertex="1" parent="1">
                    <mxGeometry x="650" y="230" width="80" height="30" as="geometry"/>
                </mxCell>
                <mxCell id="K0mcrc98uCM77xat3W6a-18" value="" style="endArrow=classic;html=1;fontSize=10;exitX=1.038;exitY=0.544;exitDx=0;exitDy=0;exitPerimeter=0;entryX=0;entryY=0.25;entryDx=0;entryDy=0;" edge="1" parent="1" source="K0mcrc98uCM77xat3W6a-3" target="K0mcrc98uCM77xat3W6a-1">
                    <mxGeometry width="50" height="50" relative="1" as="geometry">
                        <mxPoint x="480" y="350" as="sourcePoint"/>
                        <mxPoint x="530" y="300" as="targetPoint"/>
                        <Array as="points">
                            <mxPoint x="560" y="87"/>
                            <mxPoint x="560" y="185"/>
                        </Array>
                    </mxGeometry>
                </mxCell>
                <mxCell id="K0mcrc98uCM77xat3W6a-19" value="&lt;font style=&quot;font-size: 12px;&quot;&gt;静的ページ生成時の&lt;br&gt;コンテンツを取得&lt;/font&gt;" style="edgeLabel;html=1;align=center;verticalAlign=middle;resizable=0;points=[];fontSize=10;" vertex="1" connectable="0" parent="K0mcrc98uCM77xat3W6a-18">
                    <mxGeometry x="0.2996" y="2" relative="1" as="geometry">
                        <mxPoint x="8" y="-30" as="offset"/>
                    </mxGeometry>
                </mxCell>
            </root>
        </mxGraphModel>
    </diagram>
    <diagram id="8YhsgKuPzGGM2fVkBwsu" name="シーケンス図">
        <mxGraphModel dx="784" dy="626" grid="1" gridSize="10" guides="1" tooltips="1" connect="1" arrows="1" fold="1" page="1" pageScale="1" pageWidth="827" pageHeight="1169" math="0" shadow="0">
            <root>
                <mxCell id="0"/>
                <mxCell id="1" parent="0"/>
                <mxCell id="VbIuH9uLQVfNHJsO-1-l-1" value="クライアント" style="rounded=0;whiteSpace=wrap;html=1;fontSize=12;" vertex="1" parent="1">
                    <mxGeometry x="80" y="40" width="120" height="60" as="geometry"/>
                </mxCell>
                <mxCell id="VbIuH9uLQVfNHJsO-1-l-2" value="Next.js&lt;br&gt;フロントエンド" style="rounded=0;whiteSpace=wrap;html=1;fontSize=12;" vertex="1" parent="1">
                    <mxGeometry x="354" y="40" width="120" height="60" as="geometry"/>
                </mxCell>
                <mxCell id="VbIuH9uLQVfNHJsO-1-l-3" value="バックエンド" style="rounded=0;whiteSpace=wrap;html=1;fontSize=12;" vertex="1" parent="1">
                    <mxGeometry x="620" y="40" width="120" height="60" as="geometry"/>
                </mxCell>
                <mxCell id="JranZErW57dd5J9_nQzX-1" value="" style="endArrow=none;html=1;fontSize=12;entryX=0.5;entryY=1;entryDx=0;entryDy=0;startArrow=none;dashed=1;" edge="1" parent="1" source="JranZErW57dd5J9_nQzX-8" target="VbIuH9uLQVfNHJsO-1-l-1">
                    <mxGeometry width="50" height="50" relative="1" as="geometry">
                        <mxPoint x="140" y="540" as="sourcePoint"/>
                        <mxPoint x="420" y="240" as="targetPoint"/>
                    </mxGeometry>
                </mxCell>
                <mxCell id="JranZErW57dd5J9_nQzX-10" value="" style="endArrow=none;html=1;fontSize=12;entryX=0.5;entryY=1;entryDx=0;entryDy=0;dashed=1;" edge="1" parent="1" target="JranZErW57dd5J9_nQzX-8">
                    <mxGeometry width="50" height="50" relative="1" as="geometry">
                        <mxPoint x="140" y="540" as="sourcePoint"/>
                        <mxPoint x="140" y="100" as="targetPoint"/>
                    </mxGeometry>
                </mxCell>
                <mxCell id="JranZErW57dd5J9_nQzX-8" value="" style="rounded=0;whiteSpace=wrap;html=1;fontSize=12;" vertex="1" parent="1">
                    <mxGeometry x="135" y="230" width="10" height="250" as="geometry"/>
                </mxCell>
                <mxCell id="JranZErW57dd5J9_nQzX-11" value="" style="endArrow=none;html=1;fontSize=12;entryX=0.5;entryY=1;entryDx=0;entryDy=0;startArrow=none;dashed=1;" edge="1" parent="1" source="JranZErW57dd5J9_nQzX-13">
                    <mxGeometry width="50" height="50" relative="1" as="geometry">
                        <mxPoint x="414" y="540" as="sourcePoint"/>
                        <mxPoint x="414" y="100" as="targetPoint"/>
                    </mxGeometry>
                </mxCell>
                <mxCell id="JranZErW57dd5J9_nQzX-12" value="" style="endArrow=none;html=1;fontSize=12;entryX=0.5;entryY=1;entryDx=0;entryDy=0;dashed=1;startArrow=none;" edge="1" parent="1" target="JranZErW57dd5J9_nQzX-13" source="JranZErW57dd5J9_nQzX-17">
                    <mxGeometry width="50" height="50" relative="1" as="geometry">
                        <mxPoint x="414" y="540" as="sourcePoint"/>
                        <mxPoint x="414" y="100" as="targetPoint"/>
                    </mxGeometry>
                </mxCell>
                <mxCell id="JranZErW57dd5J9_nQzX-13" value="" style="rounded=0;whiteSpace=wrap;html=1;fontSize=12;" vertex="1" parent="1">
                    <mxGeometry x="409" y="120" width="10" height="90" as="geometry"/>
                </mxCell>
                <mxCell id="JranZErW57dd5J9_nQzX-14" value="" style="endArrow=none;html=1;fontSize=12;entryX=0.5;entryY=1;entryDx=0;entryDy=0;startArrow=none;dashed=1;" edge="1" parent="1" source="JranZErW57dd5J9_nQzX-16">
                    <mxGeometry width="50" height="50" relative="1" as="geometry">
                        <mxPoint x="680" y="540" as="sourcePoint"/>
                        <mxPoint x="680" y="100" as="targetPoint"/>
                    </mxGeometry>
                </mxCell>
                <mxCell id="JranZErW57dd5J9_nQzX-15" value="" style="endArrow=none;html=1;fontSize=12;entryX=0.5;entryY=1;entryDx=0;entryDy=0;dashed=1;" edge="1" parent="1" target="JranZErW57dd5J9_nQzX-16">
                    <mxGeometry width="50" height="50" relative="1" as="geometry">
                        <mxPoint x="680" y="540" as="sourcePoint"/>
                        <mxPoint x="680" y="100" as="targetPoint"/>
                    </mxGeometry>
                </mxCell>
                <mxCell id="JranZErW57dd5J9_nQzX-16" value="" style="rounded=0;whiteSpace=wrap;html=1;fontSize=12;" vertex="1" parent="1">
                    <mxGeometry x="675" y="120" width="10" height="90" as="geometry"/>
                </mxCell>
                <mxCell id="JranZErW57dd5J9_nQzX-18" value="" style="endArrow=none;html=1;fontSize=12;entryX=0.5;entryY=1;entryDx=0;entryDy=0;dashed=1;" edge="1" parent="1" target="JranZErW57dd5J9_nQzX-17">
                    <mxGeometry width="50" height="50" relative="1" as="geometry">
                        <mxPoint x="414" y="540" as="sourcePoint"/>
                        <mxPoint x="414" y="210" as="targetPoint"/>
                    </mxGeometry>
                </mxCell>
                <mxCell id="JranZErW57dd5J9_nQzX-17" value="" style="rounded=0;whiteSpace=wrap;html=1;fontSize=12;" vertex="1" parent="1">
                    <mxGeometry x="409" y="240" width="10" height="90" as="geometry"/>
                </mxCell>
                <mxCell id="JranZErW57dd5J9_nQzX-19" value="" style="rounded=0;whiteSpace=wrap;html=1;fontSize=12;" vertex="1" parent="1">
                    <mxGeometry x="675" y="350" width="10" height="130" as="geometry"/>
                </mxCell>
                <mxCell id="JranZErW57dd5J9_nQzX-20" value="" style="endArrow=classic;html=1;fontSize=12;exitX=1.233;exitY=0.103;exitDx=0;exitDy=0;exitPerimeter=0;entryX=-0.067;entryY=0.176;entryDx=0;entryDy=0;entryPerimeter=0;" edge="1" parent="1" source="JranZErW57dd5J9_nQzX-8" target="JranZErW57dd5J9_nQzX-17">
                    <mxGeometry width="50" height="50" relative="1" as="geometry">
                        <mxPoint x="370" y="290" as="sourcePoint"/>
                        <mxPoint x="420" y="240" as="targetPoint"/>
                        <Array as="points"/>
                    </mxGeometry>
                </mxCell>
                <mxCell id="JranZErW57dd5J9_nQzX-21" value="リクエスト" style="edgeLabel;html=1;align=center;verticalAlign=middle;resizable=0;points=[];fontSize=12;" vertex="1" connectable="0" parent="JranZErW57dd5J9_nQzX-20">
                    <mxGeometry relative="1" as="geometry">
                        <mxPoint as="offset"/>
                    </mxGeometry>
                </mxCell>
                <mxCell id="JranZErW57dd5J9_nQzX-22" value="" style="endArrow=classic;html=1;fontSize=12;exitX=1;exitY=0.25;exitDx=0;exitDy=0;entryX=0;entryY=0.25;entryDx=0;entryDy=0;" edge="1" parent="1" source="JranZErW57dd5J9_nQzX-13" target="JranZErW57dd5J9_nQzX-16">
                    <mxGeometry width="50" height="50" relative="1" as="geometry">
                        <mxPoint x="419.00000000000006" y="150" as="sourcePoint"/>
                        <mxPoint x="680" y="150" as="targetPoint"/>
                        <Array as="points"/>
                    </mxGeometry>
                </mxCell>
                <mxCell id="JranZErW57dd5J9_nQzX-23" value="コンテンツを取得" style="edgeLabel;html=1;align=center;verticalAlign=middle;resizable=0;points=[];fontSize=12;" vertex="1" connectable="0" parent="JranZErW57dd5J9_nQzX-22">
                    <mxGeometry relative="1" as="geometry">
                        <mxPoint as="offset"/>
                    </mxGeometry>
                </mxCell>
                <mxCell id="JranZErW57dd5J9_nQzX-24" value="" style="endArrow=classic;html=1;fontSize=12;exitX=0;exitY=0.75;exitDx=0;exitDy=0;entryX=1;entryY=0.75;entryDx=0;entryDy=0;" edge="1" parent="1">
                    <mxGeometry width="50" height="50" relative="1" as="geometry">
                        <mxPoint x="675" y="180" as="sourcePoint"/>
                        <mxPoint x="419" y="180" as="targetPoint"/>
                    </mxGeometry>
                </mxCell>
                <mxCell id="JranZErW57dd5J9_nQzX-25" value="SSG/ISR" style="edgeLabel;html=1;align=center;verticalAlign=middle;resizable=0;points=[];fontSize=12;" vertex="1" connectable="0" parent="JranZErW57dd5J9_nQzX-24">
                    <mxGeometry relative="1" as="geometry">
                        <mxPoint as="offset"/>
                    </mxGeometry>
                </mxCell>
                <mxCell id="JranZErW57dd5J9_nQzX-26" value="" style="endArrow=classic;html=1;fontSize=12;exitX=0;exitY=0.75;exitDx=0;exitDy=0;entryX=0.914;entryY=0.276;entryDx=0;entryDy=0;entryPerimeter=0;" edge="1" parent="1" target="JranZErW57dd5J9_nQzX-8">
                    <mxGeometry width="50" height="50" relative="1" as="geometry">
                        <mxPoint x="409" y="300" as="sourcePoint"/>
                        <mxPoint x="153" y="300" as="targetPoint"/>
                    </mxGeometry>
                </mxCell>
                <mxCell id="JranZErW57dd5J9_nQzX-27" value="SSG/ISRで生成されたページを送信" style="edgeLabel;html=1;align=center;verticalAlign=middle;resizable=0;points=[];fontSize=12;" vertex="1" connectable="0" parent="JranZErW57dd5J9_nQzX-26">
                    <mxGeometry relative="1" as="geometry">
                        <mxPoint as="offset"/>
                    </mxGeometry>
                </mxCell>
                <mxCell id="JranZErW57dd5J9_nQzX-28" value="" style="endArrow=classic;html=1;fontSize=12;exitX=0.983;exitY=0.674;exitDx=0;exitDy=0;exitPerimeter=0;entryX=0.5;entryY=0.373;entryDx=0;entryDy=0;entryPerimeter=0;" edge="1" parent="1" source="JranZErW57dd5J9_nQzX-8" target="JranZErW57dd5J9_nQzX-19">
                    <mxGeometry width="50" height="50" relative="1" as="geometry">
                        <mxPoint x="430" y="400" as="sourcePoint"/>
                        <mxPoint x="480" y="350" as="targetPoint"/>
                    </mxGeometry>
                </mxCell>
                <mxCell id="JranZErW57dd5J9_nQzX-29" value="個別コンテンツ取得" style="edgeLabel;html=1;align=center;verticalAlign=middle;resizable=0;points=[];fontSize=12;" vertex="1" connectable="0" parent="JranZErW57dd5J9_nQzX-28">
                    <mxGeometry relative="1" as="geometry">
                        <mxPoint as="offset"/>
                    </mxGeometry>
                </mxCell>
                <mxCell id="JranZErW57dd5J9_nQzX-30" value="" style="endArrow=classic;html=1;fontSize=12;exitX=0.117;exitY=0.697;exitDx=0;exitDy=0;exitPerimeter=0;entryX=0.983;entryY=0.846;entryDx=0;entryDy=0;entryPerimeter=0;" edge="1" parent="1" source="JranZErW57dd5J9_nQzX-19" target="JranZErW57dd5J9_nQzX-8">
                    <mxGeometry width="50" height="50" relative="1" as="geometry">
                        <mxPoint x="135.00000000000006" y="620.01" as="sourcePoint"/>
                        <mxPoint x="670.17" y="620" as="targetPoint"/>
                    </mxGeometry>
                </mxCell>
                <mxCell id="JranZErW57dd5J9_nQzX-31" value="非同期にユーザー個別のコンテンツ取得しCSR" style="edgeLabel;html=1;align=center;verticalAlign=middle;resizable=0;points=[];fontSize=12;" vertex="1" connectable="0" parent="JranZErW57dd5J9_nQzX-30">
                    <mxGeometry relative="1" as="geometry">
                        <mxPoint as="offset"/>
                    </mxGeometry>
                </mxCell>
            </root>
        </mxGraphModel>
    </diagram>
</mxfile>